<svg xmlns="http://www.w3.org/2000/svg" viewBox="0 0 780 430"><title>Asset 1</title><g id="Layer_2" data-name="Layer 2"><g id="Layer_1-2" data-name="Layer 1"><rect width="780" height="430"/><circle cx="57.89" cy="370.19" r="56.39" style="fill:#edb518"/><path d="M57.89,315.3A54.89,54.89,0,1,1,3,370.19,54.95,54.95,0,0,1,57.89,315.3m0-3a57.89,57.89,0,1,0,57.89,57.89A57.89,57.89,0,0,0,57.89,312.3Z" style="fill:#edb518"/><line x1="135.23" y1="191.19" x2="76.53" y2="314.58" style="fill:none;stroke:#edb518;stroke-miterlimit:10;stroke-width:3px"/><line x1="135.23" y1="191.19" x2="76.53" y2="314.58" style="fill:#edb518"/><circle cx="158.44" cy="141.67" r="56.39" transform="translate(-6.79 275.37) rotate(-80.78)" style="fill:#edb518"/><path d="M158.44,86.78a54.9,54.9,0,1,1-54.89,54.89,55,55,0,0,1,54.89-54.89m0-3a57.9,57.9,0,1,0,57.89,57.89,57.89,57.89,0,0,0-57.89-57.89Z" style="fill:#edb518"/><path d="M388.48,114.29a56.41,56.41,0,1,1,43.83-20.88A56.49,56.49,0,0,1,388.48,114.29Z" style="fill:#edb518"/><path d="M388.55,0V3a54.88,54.88,0,1,1-42.68,20.32A55,55,0,0,1,388.55,3V0m0,0A57.89,57.89,0,1,0,425,12.93,57.78,57.78,0,0,0,388.55,0Z" style="fill:#edb518"/><circle cx="262.03" cy="371.71" r="56.39" style="fill:#edb518"/><path d="M262,316.82a54.9,54.9,0,1,1-54.89,54.89A55,55,0,0,1,262,316.82m0-3a57.9,57.9,0,1,0,57.89,57.89A57.89,57.89,0,0,0,262,313.82Z" style="fill:#edb518"/><line x1="184.7" y1="192.71" x2="243.39" y2="316.11" style="fill:none;stroke:#edb518;stroke-miterlimit:10;stroke-width:3px"/><line x1="184.7" y1="192.71" x2="243.39" y2="316.11" style="fill:#edb518"/><path d="M722.11,426.58a56.39,56.39,0,1,1,56.39-56.39A56.46,56.46,0,0,1,722.11,426.58Z" style="fill:#edb518"/><path d="M722.11,315.3a54.89,54.89,0,1,1-54.89,54.89,54.95,54.95,0,0,1,54.89-54.89m0-3A57.89,57.89,0,1,0,780,370.19a57.89,57.89,0,0,0-57.89-57.89Z" style="fill:#edb518"/><line x1="644.77" y1="191.19" x2="703.47" y2="314.58" style="fill:none;stroke:#edb518;stroke-miterlimit:10;stroke-width:3px"/><line x1="644.77" y1="191.19" x2="703.47" y2="314.58" style="fill:#edb518"/><circle cx="621.56" cy="141.67" r="56.39" style="fill:#edb518"/><path d="M621.56,86.78a54.89,54.89,0,1,1-54.89,54.89,55,55,0,0,1,54.89-54.89m0-3a57.89,57.89,0,1,0,57.89,57.89,57.89,57.89,0,0,0-57.89-57.89Z" style="fill:#edb518"/><line x1="440.7" y1="81.74" x2="564" y2="140.63" style="fill:none;stroke:#edb518;stroke-miterlimit:10;stroke-width:3px"/><line x1="440.7" y1="81.74" x2="564" y2="140.63" style="fill:#edb518"/><circle cx="517.97" cy="371.71" r="56.39" style="fill:#edb518"/><path d="M518,316.82a54.89,54.89,0,1,1-54.89,54.89A55,55,0,0,1,518,316.82m0-3a57.89,57.89,0,1,0,57.89,57.89A57.89,57.89,0,0,0,518,313.82Z" style="fill:#edb518"/><line x1="595.3" y1="192.71" x2="536.61" y2="316.11" style="fill:none;stroke:#edb518;stroke-miterlimit:10;stroke-width:3px"/><line x1="595.3" y1="192.71" x2="536.61" y2="316.11" style="fill:#edb518"/><line x1="337.44" y1="83.02" x2="216" y2="140.63" style="fill:none;stroke:#edb518;stroke-miterlimit:10;stroke-width:3px"/><line x1="337.44" y1="83.02" x2="216" y2="140.63" style="fill:#edb518"/><rect x="25.68" y="204.14" width="712.72" height="99.02"/><path d="M70.22,281.53V218.85h8.85v62.68Zm27.24,0V252.69a9.26,9.26,0,0,0-2.09-6.49,7.53,7.53,0,0,0-5.85-2.28q-10.44,0-10.45,12.7l-2.59-11.36h3.43a8.85,8.85,0,0,1,3.26-6.67q2.88-2.19,8.44-2.19,7,0,10.86,4.26t3.85,12v28.84Z" style="fill:#79031d"/><path d="M142.67,282.36q-11.32,0-17.49-5.95T119,259.29q0-10.86,5.22-16.88t14.75-6q9,0,13.9,5.43t4.91,15.79c0,2-.09,3.93-.25,5.69H126.46v-6.77h23.31q0-6-2.84-9.17a9.93,9.93,0,0,0-7.85-3.2,10.65,10.65,0,0,0-8.76,3.84q-3.1,3.86-3.11,10.87,0,7.68,4.28,11.7t12.18,4a48.9,48.9,0,0,0,5.44-.31q2.67-.31,5.43-.86l1.09,7.77a58.9,58.9,0,0,1-7.19,1C146.27,282.29,144.34,282.36,142.67,282.36Z" style="fill:#79031d"/><path d="M182,282.36q-6.93,0-10.74-3.34t-3.8-9.45q0-7,5.25-10.78T187.55,255a46.82,46.82,0,0,1,7.08.48,25.11,25.11,0,0,1,5.54,1.45l-1.84,6a30.35,30.35,0,0,0-5.47-.73c-1.79-.07-3.61-.1-5.48-.1q-11.53,0-11.53,7a5.45,5.45,0,0,0,2,4.51,8.81,8.81,0,0,0,5.62,1.59,15.2,15.2,0,0,0,6.92-1.42,10.24,10.24,0,0,0,4.16-3.64,8.5,8.5,0,0,0,1.38-4.55V260.8l2.59,11.37H195l1.42-1.34a11,11,0,0,1-1.78,6.41,10.61,10.61,0,0,1-5,3.85A20.63,20.63,0,0,1,182,282.36Zm15.63-.42-.58-13.12-1.17-3.68V253.7c0-3-1-5.12-3.12-6.5s-5.16-2.13-9.25-2.24l-10.62-.29.84-7.86,8.94.13q11,.17,16.32,4.74T204.35,255V273.5l7.52.92v7.11Z" style="fill:#79031d"/><path d="M220.64,300.75V237.23h8l.83,9.36v54.16Zm21.44-18.39a13.31,13.31,0,0,1-8.21-2.34,8.82,8.82,0,0,1-3.53-6.52h-3.85l3-12.62q0,6.86,2.7,10.41t7.91,3.55a9.39,9.39,0,0,0,8.11-3.8Q251,267.23,251,259.8q0-7.86-2.76-11.87a9.22,9.22,0,0,0-8.11-4q-5.22,0-7.91,3.55t-2.7,10.4l-3-12.61h3.43a9.32,9.32,0,0,1,3.78-6.52,13.84,13.84,0,0,1,8.38-2.34q8.73,0,13.2,5.93t4.47,17.47q0,11.11-4.47,16.84T242.08,282.36Z" style="fill:#79031d"/><path d="M267.94,255.79V248h41.79v7.78Z" style="fill:#79031d"/><path d="M339,282.36q-9.19,0-14.29-6t-5.1-17q0-11,5.1-17t14.29-6q9.22,0,14.31,6t5.08,17q0,11-5.08,17T339,282.36Zm0-7.94a8.56,8.56,0,0,0,7.54-3.93q2.66-3.93,2.65-11.11t-2.65-11.14a9.24,9.24,0,0,0-15.08,0q-2.65,3.91-2.66,11.14t2.66,11.11A8.55,8.55,0,0,0,339,274.42Z" style="fill:#79031d"/><path d="M383.23,281.53l-15.84-44.3h9.44L388.74,274h.76l11.9-36.77h9.45L395,281.53Z" style="fill:#79031d"/><path d="M443.52,282.36q-11.32,0-17.48-5.95t-6.17-17.12q0-10.86,5.23-16.88t14.75-6q9,0,13.89,5.43t4.91,15.79c0,2-.08,3.93-.25,5.69H427.31v-6.77h23.32q0-6-2.84-9.17a10,10,0,0,0-7.86-3.2,10.62,10.62,0,0,0-8.75,3.84q-3.12,3.86-3.12,10.87,0,7.68,4.29,11.7t12.18,4a48.59,48.59,0,0,0,5.43-.31q2.67-.31,5.43-.86l1.09,7.77a58.9,58.9,0,0,1-7.19,1C447.12,282.29,445.2,282.36,443.52,282.36Z" style="fill:#79031d"/><path d="M467.68,281.53v-7.28h29.58v7.28Zm1.67-37v-7.27h14.79l.83,7.27Zm8.19,37v-44.3h7.18l1.68,12.71v31.59Zm8.86-19.06-2.6-13.87h3.43q.75-12.21,12.2-12.2,6.85,0,9.95,3.92T512.47,253h-8.78q0-4.84-1.44-7a5.21,5.21,0,0,0-4.66-2.13,9.11,9.11,0,0,0-8.42,4.82Q486.4,253.57,486.4,262.47Z" style="fill:#79031d"/><path d="M517.32,254.53v-7.27h40.95v7.27Zm13.95,27V241q0-23,21-23a49.24,49.24,0,0,1,9.19.84l-.92,7.69c-1.75-.23-3.3-.38-4.64-.46S553.25,226,552,226q-11.87,0-11.87,14.63v40.95Z" style="fill:#79031d"/><path d="M568.71,226.12v-7.27H582.5v7.27Zm27.58,56.24q-7.69,0-11.11-4.18t-3.43-13.37v-46h8.86v45.54a20.17,20.17,0,0,0,.67,5.73,5.26,5.26,0,0,0,2.61,3.26,12.53,12.53,0,0,0,5.74,1,32.66,32.66,0,0,0,8.86-1.59l1,7.78a51,51,0,0,1-6.49,1.33A50.32,50.32,0,0,1,596.29,282.36Z" style="fill:#79031d"/><path d="M639.83,282.36q-9.2,0-14.29-6t-5.1-17q0-11,5.1-17t14.29-6q9.24,0,14.31,6t5.08,17q0,11-5.08,17T639.83,282.36Zm0-7.94a8.56,8.56,0,0,0,7.54-3.93q2.65-3.93,2.66-11.11t-2.66-11.14a9.24,9.24,0,0,0-15.08,0q-2.65,3.91-2.65,11.14t2.65,11.11A8.56,8.56,0,0,0,639.83,274.42Z" style="fill:#79031d"/><path d="M672.84,281.53l-5-44.3h8.35l3.35,37.61h.75l5.22-37.61h8.11l-3.72,9.11h-.59l-5.18,35.19Zm22.15,0-5.18-35.19h-.67l-3.64-9.11h8.11l5.22,37.61h.75l3.76-37.61h8.78l-6.27,44.3Z" style="fill:#79031d"/></g></g></svg>